PathFileType	4	(X/Y/Z)	OpenSim_Sub08_EMGStiffKnee_Gyro.trc
DataRate	CameraRate	NumFrames	NumMarkers	Units	OrigDataRate	OrigDataStartFrame	OrigNumFrames
100	100	34	8	m	100	788	6301
Frame#	Time	torso_imu_offset_imu	pelvis_imu_offset_imu	tibia_r_imu_offset_imu	femur_r_imu_offset_imu	tibia_l_imu_offset_imu	femur_l_imu_offset_imu	toes_r_imu_offset_imu	toes_l_imu_offset_imu
				X1	Y1	Z1	X2	Y2	Z2	X3	Y3	Z3	X4	Y4	Z4	X5	Y5	Z5	X6	Y6	Z6	X7	Y7	Z7	X8		Y8	Z8	

788	7.87000000	-0.27442137	-0.07109503	0.09796849	-0.43333196	-0.12117183	0.21069238	-2.05243920	0.44501654	2.36943123	-0.26149242	0.29372347	0.45077223	0.05157805	-0.40605083	0.57010014	0.70532778	-0.38659489	0.78108080	-1.20959482	3.94907559	-0.16891175	-0.07807329	-0.15055408	0.05449868
789	7.88000000	-0.35250224	-0.13146138	0.09037565	-0.47158393	-0.11908889	0.21473042	-2.37189037	0.37973838	2.52756104	-0.30861399	0.36771378	0.67607894	-0.08971984	-0.39515650	0.51170711	0.32253467	-0.36156290	0.72125607	-0.93850739	4.02727425	-0.39121186	-0.07484863	-0.13473361	0.05328186
790	7.89000000	-0.42941882	-0.17539514	0.09040965	-0.46939510	-0.11026085	0.22982168	-2.24322244	0.20928509	2.64071384	-0.35960095	0.36975634	0.89662699	-0.19336338	-0.37400943	0.51308727	-0.02740653	-0.35726232	0.65648809	-1.02397493	3.92670976	-0.54217627	-0.06632270	-0.08737598	0.04576746
791	7.90000000	-0.49047499	-0.24036996	0.14420837	-0.46160436	-0.11782899	0.24797989	-2.00706291	0.00405179	2.65541384	-0.43054620	0.32071014	1.07842068	-0.19320217	-0.35761231	0.53273574	-0.27144296	-0.37419809	0.57865929	-1.33360720	3.73524678	-0.62313589	-0.03381782	-0.09500028	0.03071180
792	7.91000000	-0.54737561	-0.29686290	0.14728106	-0.40584442	-0.10001184	0.25479819	-1.83259250	-0.16111080	2.57263523	-0.50357794	0.26966464	1.23986790	-0.14015458	-0.36415292	0.52357903	-0.36864913	-0.40579516	0.52276144	-1.77308874	3.38775836	-0.66299312	-0.03737883	-0.07843476	0.02301441
793	7.92000000	-0.59450976	-0.34502612	0.12349323	-0.29946458	-0.04548287	0.25162688	-1.67864824	-0.26791828	2.46027153	-0.55835624	0.23449075	1.39923241	0.02211474	-0.35659075	0.53246675	-0.35422745	-0.40077433	0.46094197	-1.99960859	2.97600913	-0.68545287	0.01621330	-0.07916156	0.01871153
794	7.93000000	-0.62653213	-0.39601416	0.10720388	-0.22477539	0.03182152	0.22468234	-1.47027026	-0.30437800	2.41500426	-0.58566982	0.22195496	1.55351110	0.18251635	-0.35843766	0.54777506	-0.24921915	-0.35326454	0.41142554	-1.99619135	2.62745288	-0.60420730	-0.00789850	-0.06864299	0.02465012
795	7.94000000	-0.63533566	-0.44387433	0.07975357	-0.21619208	0.08628586	0.18334606	-1.14507007	-0.21115288	2.39686976	-0.57722928	0.22789671	1.68543348	0.27449067	-0.37887265	0.58496720	-0.09095114	-0.29713518	0.36106314	-1.89967594	2.27438991	-0.33983085	0.03127214	-0.07239296	0.05508688
796	7.95000000	-0.61942208	-0.48941066	0.03979702	-0.20247978	0.08853694	0.13893107	-0.77131604	-0.02943342	2.33858078	-0.57397579	0.18753287	1.77983669	0.31817999	-0.36956804	0.64827458	0.07631627	-0.28091298	0.30113578	-2.04177580	1.78102365	-0.05389910	0.02124780	-0.03283966	0.05106677
797	7.96000000	-0.60581298	-0.51902773	0.01593011	-0.14121093	0.06004130	0.10856729	-0.85299806	0.12454706	2.31038601	-0.49451218	0.10375150	1.83574815	0.33949820	-0.34779919	0.68179868	0.27323577	-0.26674755	0.25042771	-1.28546973	1.70357053	0.13980422	0.08917462	-0.03879899	0.06755651
798	7.97000000	-0.59019917	-0.53103304	-0.02738053	-0.05127659	0.00869639	0.07587400	-1.07110118	0.18995999	2.30037292	-0.26822882	0.01015022	1.86201902	0.43415077	-0.34118812	0.65972842	0.48739141	-0.25992403	0.21227557	-0.80356609	1.74175649	0.31590702	0.01136814	-0.03634953	0.07424159
799	7.98000000	-0.56252130	-0.55037012	-0.06264347	0.02565782	-0.02552814	0.06132038	-0.75247404	0.13456367	2.32422401	-0.02497993	-0.03722121	1.89127484	0.59999677	-0.33640357	0.65977286	0.63377497	-0.24796210	0.16352011	-0.50573624	1.82444123	0.50008642	0.06653800	-0.00386880	0.06956758
800	7.99000000	-0.52401454	-0.55951730	-0.09565082	0.09964571	-0.03345507	0.06012401	-0.08583164	0.04796744	2.40446072	0.18185683	-0.05981717	1.90062165	0.77965616	-0.30960951	0.72114564	0.70503142	-0.16143022	0.08288900	-0.40925827	1.86197368	0.67783410	0.10432747	-0.02466795	0.02314756
801	8	-0.47733007	-0.57435900	-0.11798938	0.15231839	-0.02141631	0.06362740	0.64441738	0.04259425	2.46864817	0.37268967	-0.09499525	1.91303285	0.89215094	-0.27851607	0.78800555	0.71821685	-0.06682254	0.04897334	-0.31298705	1.86169889	0.86429904	0.07669214	-0.04345534	0.00151925
802	8.01000000	-0.43724474	-0.59022082	-0.13177127	0.17962460	-0.01251211	0.06669919	1.24386137	0.14860974	2.48582123	0.56672201	-0.13091882	1.90505959	0.88260645	-0.30020920	0.80278867	0.68512014	-0.07731216	0.05866395	-0.33378427	1.75570710	1.09704825	0.13550014	-0.01898681	0.00342165
803	8.02000000	-0.40185585	-0.58491820	-0.15528894	0.22674600	-0.01037705	0.06481038	1.58868865	0.25643231	2.48581498	0.75035419	-0.14832792	1.88241366	0.80067319	-0.37717963	0.78658308	0.66269761	-0.10242892	0.00883489	-0.28930017	1.60060260	1.38136733	0.10358369	-0.01780622	0.03081182
804	8.03000000	-0.38020225	-0.60174186	-0.17093316	0.26572878	-0.01010247	0.05821932	1.81370346	0.29753809	2.45756030	0.89034513	-0.14970192	1.83354461	0.74449283	-0.40250675	0.80029159	0.66770585	-0.06582980	-0.05592354	-0.15546765	1.38883032	1.69549304	0.05652194	-0.03268441	0.04895525
805	8.04000000	-0.35459450	-0.60962776	-0.14426958	0.27695601	-0.02394189	0.05686748	2.02306322	0.33439320	2.38258969	0.98860444	-0.11639185	1.79369268	0.65018817	-0.36530512	0.84644566	0.66231152	-0.00450934	-0.02795822	0.02625666	1.15919341	2.00871466	0.09432720	0.02797457	0.09434290
806	8.05000000	-0.32887698	-0.60940214	-0.13582834	0.28454015	-0.07948678	0.05477018	2.11385092	0.38153508	2.30138030	1.03825428	-0.06798976	1.76442869	0.58009799	-0.37215498	0.85317130	0.64524110	0.00036175	0.01866728	0.18109647	0.93313533	2.29180848	0.04580307	0.03360698	0.19737661
807	8.06000000	-0.29164704	-0.59553106	-0.12646580	0.26733098	-0.17829381	0.04768405	2.05546534	0.42103327	2.23265185	1.01633122	-0.03925862	1.75008376	0.61264161	-0.33691670	0.76823856	0.54571072	-0.04386425	0.06969795	0.41059548	0.76227395	2.48553018	-0.07291369	0.04575782	0.29010639
808	8.07000000	-0.27161506	-0.57770202	-0.11677229	0.21033202	-0.27438110	0.04009363	1.97948013	0.43714239	2.15838511	0.91688261	-0.03022109	1.74120418	0.56158315	-0.31204954	0.71730181	0.34807710	-0.10709054	0.12658495	0.75890089	0.70328358	2.55713651	-0.02713312	0.06332270	0.30266179
809	8.08000000	-0.25418292	-0.54742419	-0.09630976	0.14366917	-0.34324463	0.02972554	1.93357703	0.42423996	2.08097648	0.80727073	-0.02173355	1.71267679	0.55181339	-0.30468653	0.76778185	0.21775470	-0.13115488	0.17664486	1.04158443	0.64185619	2.56044456	0.07656120	0.05892088	0.26812464
810	8.09000000	-0.23326592	-0.50984945	-0.07891367	0.10351280	-0.35965306	0.01190962	1.88827956	0.36956599	2.01039745	0.71910818	-0.02177608	1.66926727	0.50267236	-0.23279066	0.82635301	0.20899602	-0.13229638	0.21673516	1.01764826	0.71295329	2.56900792	0.02912742	0.06943147	0.27992678
811	8.10000000	-0.21990812	-0.47003832	-0.06471189	0.08607845	-0.31619603	0.00150891	1.80761085	0.34535062	1.91504328	0.59001861	-0.03592710	1.62371002	0.44844612	-0.18360251	0.79975742	0.12435416	-0.14210047	0.27686636	0.88680505	0.93407956	2.54341077	0.00980006	0.05164523	0.31756591
812	8.11000000	-0.20811934	-0.42572325	-0.05946807	0.06546690	-0.25032352	-0.01573428	1.83400597	0.35587689	1.76629191	0.47402335	-0.06121411	1.58291387	0.40811064	-0.16736878	0.72782913	-0.07257682	-0.16130530	0.32536701	0.71442718	1.04774390	2.39292392	-0.00737755	0.06350191	0.33432356
813	8.12000000	-0.19127949	-0.36912586	-0.06414316	0.06558662	-0.20007501	-0.03375176	1.73056583	0.34501763	1.67680153	0.36191096	-0.07733355	1.50348594	0.43134626	-0.14357922	0.73669161	-0.19611019	-0.15657729	0.37920919	0.52881377	1.07280846	2.15608614	0.03442788	-0.01400923	0.28887703
814	8.13000000	-0.17807685	-0.31812647	-0.05932874	0.10005725	-0.15140753	-0.06239785	1.44111348	0.34604407	1.70329702	0.26241275	-0.07930691	1.41114926	0.42955259	-0.11734963	0.81539905	-0.24567429	-0.15008549	0.42066724	0.24043146	1.16150132	1.90560263	0.11254213	0.00726058	0.29374962
815	8.14000000	-0.16200729	-0.26320725	-0.06729221	0.16674554	-0.11968756	-0.07292337	1.12498254	0.33951037	1.72013386	0.13174458	-0.06461043	1.31217544	0.46274525	-0.12462357	0.83211869	-0.19997442	-0.13919990	0.43857659	-0.06043554	1.23578053	1.65748265	0.02242418	-0.01020261	0.32245829
816	8.15000000	-0.14655245	-0.20731895	-0.07742447	0.24408953	-0.08167873	-0.07357335	0.73983941	0.30108373	1.68826113	0.04077930	-0.04916240	1.20402830	0.43552314	-0.09788561	0.79352611	-0.04750649	-0.10612309	0.43664594	-0.29483836	1.28588460	1.38680084	-0.00902251	-0.01972960	0.30199107
817	8.16000000	-0.12974846	-0.15587109	-0.07993946	0.30394046	-0.05576268	-0.05646121	0.26183094	0.25734630	1.63652978	-0.00209396	-0.03171366	1.08544663	0.38757012	-0.11214689	0.82222084	0.10103995	-0.07137028	0.44903256	-0.44910810	1.29283222	1.11098845	0.09638581	-0.07502356	0.24217359
818	8.17000000	-0.10830468	-0.11232558	-0.08383893	0.35963300	-0.05259649	-0.02606573	-0.21170394	0.23052435	1.60332199	-0.03924669	-0.00376350	0.94934466	0.41338426	-0.08870452	0.88503028	0.19203332	-0.06324151	0.47110715	-0.57277425	1.27545494	0.85683383	0.19479571	-0.07207877	0.19865057
819	8.18000000	-0.08784389	-0.06403015	-0.08134004	0.41595233	-0.04380403	-0.00245324	-0.52163355	0.19824365	1.59262506	-0.08094886	0.02099531	0.79118661	0.39234943	-0.08971177	0.94228865	0.24435634	-0.05280617	0.49504878	-0.63950245	1.29523975	0.64965321	0.19259483	-0.12737548	0.19313012
820	8.19000000	-0.06077571	-0.03454836	-0.07573963	0.45031521	-0.03805236	0.02972045	-0.64694836	0.17369545	1.56227207	-0.08031858	0.02364699	0.64170297	0.46529195	-0.09234306	0.92938922	0.26884843	-0.03256721	0.46979446	-0.74995770	1.33455574	0.49697778	0.16172751	-0.15816818	0.24364225
821	8.20000000	-0.02839626	0.00407788	-0.07338032	0.48298375	-0.02731045	0.06484641	-0.66538228	0.15669450	1.50781645	-0.04366891	0.00243660	0.50785277	0.47705577	-0.07533158	0.91402481	0.28448656	-0.00246196	0.45279512	-0.81248990	1.44084029	0.40875908	0.15218335	-0.15776612	0.24446129
